PathFileType	4	(X/Y/Z)	C:\Users\JDoe\SprintCalib.trc
DataRate	CameraRate	NumFrames	NumMarkers	Units	OrigDataRate	OrigDataStartFrame	OrigNumFrames
250.00	250.00	       4	65	mm	250.00	1	       337
Frame#	Time	C7			T8			T12			IJ			PX			R.AA			R.AC			R.Scapula			R.HeadHum			R.Hum			R.Epi.Med			R.Epi.Lat			R.Ulna			R.Wrist.Uln			R.Wrist.Rad			R.Hand			R.Hand2			R.Hand5			L.AA			L.AC			L.Scapula			L.HeadHum			L.Hum			L.Epi.Med			L.Epi.Lat			L.Ulna			L.Wrist.Uln			L.Wrist.Rad			L.Hand			L.Hand2			L.Hand5			Tete.H			Tete.D			Tete.G			Sacral			R.EIAS			LEIAS			R.Crete			L.Crete			R.GT			R.Hip			R.Knee.Med			R.Knee.Lat			R.TTA			R.Fibula			R.Ankle.Med			R.Ankle.Lat			R.Calca			R.Foot.Med			R.Foot.Lat			L.GT			L.Hip			L.Knee.Med			L.Knee.Lat			L.TTA			L.Fibula			L.Ankle.Med			L.Ankle.Lat			L.Calca			L.Foot.Med			L.Foot.Lat			StartG			StartD			StartAvt			StartArr			
		X1	Y1	Z1	X2	Y2	Z2	X3	Y3	Z3	X4	Y4	Z4	X5	Y5	Z5	X6	Y6	Z6	X7	Y7	Z7	X8	Y8	Z8	X9	Y9	Z9	X10	Y10	Z10	X11	Y11	Z11	X12	Y12	Z12	X13	Y13	Z13	X14	Y14	Z14	X15	Y15	Z15	X16	Y16	Z16	X17	Y17	Z17	X18	Y18	Z18	X19	Y19	Z19	X20	Y20	Z20	X21	Y21	Z21	X22	Y22	Z22	X23	Y23	Z23	X24	Y24	Z24	X25	Y25	Z25	X26	Y26	Z26	X27	Y27	Z27	X28	Y28	Z28	X29	Y29	Z29	X30	Y30	Z30	X31	Y31	Z31	X32	Y32	Z32	X33	Y33	Z33	X34	Y34	Z34	X35	Y35	Z35	X36	Y36	Z36	X37	Y37	Z37	X38	Y38	Z38	X39	Y39	Z39	X40	Y40	Z40	X41	Y41	Z41	X42	Y42	Z42	X43	Y43	Z43	X44	Y44	Z44	X45	Y45	Z45	X46	Y46	Z46	X47	Y47	Z47	X48	Y48	Z48	X49	Y49	Z49	X50	Y50	Z50	X51	Y51	Z51	X52	Y52	Z52	X53	Y53	Z53	X54	Y54	Z54	X55	Y55	Z55	X56	Y56	Z56	X57	Y57	Z57	X58	Y58	Z58	X59	Y59	Z59	X60	Y60	Z60	X61	Y61	Z61	X62	Y62	Z62	X63	Y63	Z63	X64	Y64	Z64	X65	Y65	Z65	

1	0.000	-104.45724	89.31086	1479.24023	-56.31228	74.74961	1254.93811	-98.55803	75.89622	1129.19946	-247.64952	85.75606	1400.97302	-295.31558	81.86417	1251.75635	-56.22002	175.11043	1436.97009	-205.92674	203.64516	1420.49084	-124.53224	225.99695	1456.96313	-100.93880	311.84329	1404.47974	-60.28706	370.53189	1274.71057	-111.68941	391.89017	1151.60669	-64.67933	443.09570	1227.31470	-55.57892	558.00226	1136.50000	-57.40179	655.07861	1023.51843	-96.22943	675.92719	1063.79614	-63.54082	707.83795	1001.46967	-71.65545	696.90997	956.65344	-87.18897	753.75378	1012.05963	-54.76255	-12.15243	1431.16003	-207.87222	-28.10299	1429.04370	-137.08755	-62.79365	1466.26050	-118.03133	-157.92308	1421.89197	-76.51527	-195.00919	1281.34412	-154.42438	-256.20367	1199.70569	-100.91417	-298.12384	1274.29321	-106.43837	-383.83273	1155.02844	-142.53835	-528.28290	1080.33887	-176.99048	-557.83398	1125.09106	-160.99739	-589.38318	1065.70972	-187.51596	-636.38831	1072.12805	-171.26376	-583.55695	1021.34955	-150.90887	78.43948	1728.49695	-263.15179	77.07634	1712.32886	-65.20142	89.34035	1650.39124	-67.41399	72.98099	1025.97351	-284.36734	155.18890	1010.52069	-291.10565	3.38935	1018.88531	-172.52759	229.95221	1053.72095	-191.01585	-72.30849	1057.92395	-133.98404	242.15895	926.92334	-268.53589	221.14644	748.28540	-126.14866	141.70474	483.09595	-132.90559	262.76596	517.84576	-178.28943	213.56558	408.04889	-121.33289	280.02597	388.16483	-113.15959	168.33667	95.81839	-77.50765	251.46289	92.07136	-27.38021	189.61185	61.65751	-252.95073	249.10492	55.18780	-232.02516	302.37390	47.69979	-142.69296	-88.37756	936.98651	-136.52509	-121.62431	761.03571	-128.66135	4.33683	499.99719	-133.21358	-119.32292	521.18323	-185.53755	-87.93106	418.68854	-92.80104	-136.40181	349.77774	-137.18890	-43.18276	98.99457	-86.43732	-122.33410	87.93832	-46.78320	-52.88330	67.03619	-273.56302	-110.30892	49.79347	-241.57179	-176.91699	57.12551	-594.32819	266.33832	25.34545	-929.95142	-121.84692	33.68814	-519.41260	71.81577	44.95951	-1119.92188	77.32641	55.42524	-76.32621	166.11128	1148.26831	-52.08382	-12.28038	1262.95764	-11.55095	650.17474	18.82187	-4.33840	-539.58392	34.44904	-310.02078	82.57878	1046.72656	
2	0.004	-104.03793	89.12309	1479.42957	-56.00818	74.79559	1255.04700	-98.55803	75.89622	1129.19946	-247.64952	85.75606	1400.97302	-295.31558	81.86417	1251.75635	-56.22002	175.11043	1436.97009	-205.92674	203.64516	1420.49084	-124.46177	225.89560	1456.96985	-100.78581	311.85059	1404.47595	-60.28706	370.53189	1274.71057	-111.68941	391.89017	1151.60669	-64.50826	443.09573	1227.29163	-55.38352	557.98999	1136.49878	-57.40100	655.12244	1023.58392	-96.07448	675.75757	1063.80139	-63.54082	707.83795	1001.46967	-71.60558	697.22754	956.60645	-87.12722	753.60925	1011.79480	-54.76255	-12.15243	1431.16003	-207.87222	-28.10299	1429.04370	-136.84961	-62.98979	1466.08984	-117.94511	-157.93161	1421.98999	-76.25896	-195.21703	1281.47961	-154.42438	-256.20367	1199.70569	-100.84138	-298.24939	1274.29639	-106.43837	-383.83273	1155.02844	-142.53835	-528.28290	1080.33887	-176.80106	-557.80713	1125.09241	-161.16530	-589.62659	1065.74011	-187.51596	-636.38831	1072.12805	-171.26376	-583.55695	1021.34955	-150.75189	78.49693	1728.42175	-263.10007	77.19702	1712.28552	-65.08606	89.32696	1650.24548	-67.44263	72.76488	1025.67273	-284.36734	155.18890	1010.52069	-291.10565	3.38935	1018.88531	-172.63795	229.82137	1053.78345	-191.17569	-72.40573	1057.81030	-133.98404	242.15895	926.92334	-268.53589	221.14644	748.28540	-125.87021	141.44954	483.16455	-133.31544	262.75821	517.97766	-178.28943	213.56558	408.04889	-121.47419	280.07816	387.91675	-113.15959	168.33667	95.81839	-77.50765	251.46289	92.07136	-27.47287	189.39268	61.61416	-253.10272	249.18983	55.43996	-231.46480	302.46997	47.53724	-142.69296	-88.37756	936.98651	-136.22133	-121.32273	761.08307	-128.66135	4.33683	499.99719	-133.21358	-119.32292	521.18323	-185.53755	-87.93106	418.68854	-92.80104	-136.40181	349.77774	-137.02588	-43.19402	98.79217	-86.43732	-122.33410	87.93832	-46.78320	-52.88330	67.03619	-273.58386	-110.17107	49.91352	-241.53609	-177.13522	57.39290	-594.22662	266.27563	25.40587	-929.95142	-121.84692	33.68814	-519.41260	71.81577	44.95951	-1120.05310	77.46363	55.56725	-76.32621	166.11128	1148.26831	-52.08382	-12.28038	1262.95764	-11.59513	650.26331	18.96683	-4.28789	-539.75183	34.33849	-309.86884	82.55957	1046.87573	
3	0.008	-103.90194	88.91750	1479.67432	-56.00818	74.79559	1255.04700	-98.55803	75.89622	1129.19946	-247.76079	85.46681	1401.14185	-295.31558	81.86417	1251.75635	-56.22002	175.11043	1436.97009	-205.45903	203.56143	1420.29895	-124.53224	225.99695	1456.96313	-100.75069	311.75644	1404.43555	-60.38898	370.54227	1274.59888	-111.68941	391.89017	1151.60669	-64.59550	443.01825	1227.40710	-55.35429	557.81354	1136.36938	-57.40100	655.12244	1023.58392	-96.07448	675.75757	1063.80139	-63.54082	707.83795	1001.46967	-71.65545	696.90997	956.65344	-87.09466	753.80194	1011.92426	-54.52180	-12.01816	1431.20703	-207.79500	-27.87870	1428.89270	-136.64096	-62.99630	1466.10193	-117.94511	-157.93161	1421.98999	-76.24036	-195.03897	1281.39343	-154.42438	-256.20367	1199.70569	-100.82265	-298.36298	1274.42688	-106.43837	-383.83273	1155.02844	-142.53835	-528.28290	1080.33887	-176.80106	-557.80713	1125.09241	-160.99739	-589.38318	1065.70972	-187.37782	-636.34399	1071.97302	-171.56665	-583.69366	1021.11902	-150.74297	78.40171	1728.36487	-263.10007	77.19702	1712.28552	-64.85357	89.15244	1650.31067	-67.41399	72.98099	1025.97351	-284.36734	155.18890	1010.52069	-290.91147	3.41524	1018.82880	-172.44606	229.78044	1053.63062	-191.17569	-72.40573	1057.81030	-133.75894	242.28575	926.83136	-268.53589	221.14644	748.28540	-125.63235	141.41359	483.36807	-133.25027	262.79483	517.97693	-178.23657	213.75935	408.14740	-121.12572	280.27573	388.21793	-113.00687	168.35214	95.96040	-77.50765	251.46289	92.07136	-27.38021	189.61185	61.65751	-252.95073	249.10492	55.18780	-231.46480	302.46997	47.53724	-142.69296	-88.37756	936.98651	-136.21439	-121.50659	761.14587	-128.50705	4.32577	499.82230	-133.21358	-119.32292	521.18323	-185.53755	-87.93106	418.68854	-92.80104	-136.40181	349.77774	-137.08992	-43.10161	98.81240	-86.43732	-122.33410	87.93832	-46.87890	-52.99037	67.09545	-273.76495	-110.18633	49.83239	-241.71210	-177.04462	57.13160	-594.38647	266.39090	25.44161	-929.95142	-121.84692	33.68814	-519.36530	71.80775	44.94169	-1120.00781	77.50151	55.50018	-76.32621	166.11128	1148.26831	-52.18776	-12.01164	1262.48694	-11.65032	650.23804	18.86337	-4.26367	-539.61664	34.37408	-309.86884	82.55957	1046.87573	
4	0.012	-103.11026	88.70442	1480.37866	-56.00818	74.79559	1255.04700	-97.71733	76.07771	1129.06250	-247.64952	85.75606	1400.97302	-295.06277	81.76790	1251.61133	-56.22002	175.11043	1436.97009	-205.45903	203.56143	1420.29895	-124.42794	225.97067	1457.05774	-100.75069	311.75644	1404.43555	-60.28706	370.53189	1274.71057	-111.48484	391.67603	1151.76196	-64.59550	443.01825	1227.40710	-55.35447	557.72791	1136.49878	-57.45742	654.99567	1023.65070	-96.20157	675.46558	1063.71301	-63.54082	707.83795	1001.46967	-71.42195	696.96454	956.86865	-87.22154	753.56110	1011.93018	-54.37339	-12.67587	1431.87415	-207.72464	-27.81546	1429.08142	-136.43452	-63.18828	1466.02075	-117.89873	-158.01373	1421.99756	-76.24036	-195.03897	1281.39343	-154.42438	-256.20367	1199.70569	-100.66574	-298.41235	1274.46338	-106.43837	-383.83273	1155.02844	-142.53835	-528.28290	1080.33887	-176.87958	-557.70129	1125.23413	-160.99739	-589.38318	1065.70972	-187.58376	-636.44159	1072.26807	-171.56665	-583.69366	1021.11902	-150.73724	78.36079	1728.31665	-263.03131	77.17336	1712.37830	-64.81623	89.06331	1650.14294	-67.16904	73.00337	1025.95422	-284.36734	155.18890	1010.52069	-290.91147	3.41524	1018.82880	-172.44606	229.78044	1053.63062	-191.01585	-72.30849	1057.92395	-133.98404	242.15895	926.92334	-268.37262	221.31552	748.35107	-125.87021	141.44954	483.16455	-133.25027	262.79483	517.97693	-178.23657	213.75935	408.14740	-121.11507	280.35092	388.07678	-113.15959	168.33667	95.81839	-77.50765	251.46289	92.07136	-27.47287	189.39268	61.61416	-252.88399	249.20311	55.30349	-231.63692	302.45456	47.43561	-142.54822	-88.34985	936.84344	-135.96095	-121.34644	760.93262	-128.66135	4.33683	499.99719	-133.21358	-119.32292	521.18323	-185.53755	-87.93106	418.68854	-92.65833	-136.39136	349.91541	-136.92690	-43.11288	98.60999	-86.43732	-122.33410	87.93832	-46.78320	-52.88330	67.03619	-273.58386	-110.17107	49.91352	-241.38261	-177.20584	57.19881	-594.22662	266.27563	25.40587	-929.95142	-121.84692	33.68814	-519.44012	71.87989	45.07010	-1120.00781	77.50151	55.50018	-76.32621	166.11128	1148.26831	-52.18776	-12.01164	1262.48694	-11.59513	650.26331	18.96683	-4.22694	-539.67535	34.33581	-309.60834	82.86709	1046.87805	
